<?xml version="1.0" encoding="UTF-8"?>
<svg id="a" xmlns="http://www.w3.org/2000/svg" viewBox="0 0 225.35 226.45">
    <path fill="#FFF" d="M112.86,3.59C52.38,3.59,3.42,52.55,3.42,113.03s48.96,109.44,109.44,109.44,109.44-48.96,109.44-109.44S173.34,3.59,112.86,3.59Zm5.76,207.07v-5.76c0-3.17-2.59-5.76-5.76-5.76s-5.76,2.59-5.76,5.76v5.76c-49.54-2.88-88.99-42.62-91.87-91.87h5.76c3.17,0,5.76-2.59,5.76-5.76s-2.59-5.76-5.76-5.76h-5.76C18.11,57.73,57.85,18.27,107.1,15.39v5.76c0,3.17,2.59,5.76,5.76,5.76s5.76-2.59,5.76-5.76v-5.76c49.54,2.88,88.99,42.62,91.87,91.87h-5.76c-3.17,0-5.76,2.59-5.76,5.76s2.59,5.76,5.76,5.76h5.76c-2.88,49.54-42.34,88.99-91.87,91.87Zm28.8-63.07c-2.3,2.3-5.76,2.3-8.06,0l-30.53-30.53c.29,.29-1.73-1.15-1.73-4.03V43.91c0-3.17,2.59-5.76,5.76-5.76s5.76,2.59,5.76,5.76V110.72l28.8,28.8c2.3,2.3,2.3,5.76,0,8.06ZM4300.38-3112.57V1737.35H-837.54V-3112.57H4300.38m23.04-23.04H-860.58V1760.39H4323.42V-3135.61Z"/>
</svg>