<?xml version="1.0" encoding="UTF-8"?>
<svg id="a" xmlns="http://www.w3.org/2000/svg" viewBox="0 0 288 202">
    <path fill="#FFF" d="M240.39,196.94H47.61c-21.11-.02-38.23-17.14-38.25-38.25V43.31c.02-21.11,17.14-38.23,38.25-38.25H240.39c21.11,.02,38.23,17.14,38.25,38.25v115.38c-.02,21.11-17.14,38.23-38.25,38.25h0ZM47.61,18.56c-13.67,0-24.75,11.08-24.75,24.75v115.38c0,13.67,11.08,24.75,24.75,24.75H240.39c13.67,0,24.75-11.08,24.75-24.75V43.31c0-13.67-11.08-24.75-24.75-24.75H47.61Zm96.39,109.8c-8.33,0-16.43-2.69-23.09-7.69L15.84,41.19c-3.05-2.14-3.79-6.35-1.65-9.4,2.14-3.05,6.35-3.79,9.4-1.65,.13,.09,.26,.19,.39,.3l105.08,79.56c8.86,6.62,21.02,6.62,29.88,0L264.01,30.44c2.89-2.36,7.14-1.93,9.5,.96,2.36,2.89,1.93,7.14-.96,9.5l-.39,.3-105.07,79.47c-6.65,5.01-14.76,7.71-23.09,7.7h0ZM18.77,178.13c-3.73,0-6.75-3.01-6.76-6.74,0-1.93,.82-3.77,2.26-5.05L97.06,92.5c2.78-2.49,7.05-2.24,9.54,.54s2.24,7.05-.54,9.54L23.27,176.42c-1.23,1.12-2.84,1.73-4.5,1.71Zm250.47,0c-1.66,.02-3.27-.59-4.5-1.71l-82.8-73.84c-2.78-2.49-3.03-6.76-.54-9.54s6.76-3.03,9.54-.54l82.75,73.84c2.78,2.48,3.03,6.75,.55,9.53-1.28,1.44-3.12,2.26-5.05,2.26h.05Z"/>
</svg>